HIERARCHY
ROOT Hips
{
	OFFSET 0.000000 0.000000 0.000000
	CHANNELS 6 Xposition Yposition Zposition Zrotation Yrotation Xrotation 
	JOINT LHipJoint
	{
		OFFSET 0.000000 0.000000 0.000000
		CHANNELS 3 Zrotation Yrotation Xrotation
		JOINT LeftUpLeg
		{
			OFFSET 1.363060 -1.794630 0.839290
			CHANNELS 3 Zrotation Yrotation Xrotation
			JOINT LeftLeg
			{
				OFFSET 2.448110 -6.726130 0.000000
				CHANNELS 3 Zrotation Yrotation Xrotation
				JOINT LeftFoot
				{
					OFFSET 2.562200 -7.039590 0.000000
					CHANNELS 3 Zrotation Yrotation Xrotation
					JOINT LeftToeBase
					{
						OFFSET 0.157640 -0.433110 2.322550
						CHANNELS 3 Zrotation Yrotation Xrotation
						End Site
						{
							OFFSET 0.000000 0.000000 0.000000
						}
					}
				}
			}
		}
	}
	JOINT RHipJoint
	{
		OFFSET 0.000000 0.000000 0.000000
		CHANNELS 3 Zrotation Yrotation Xrotation
		JOINT RightUpLeg
		{
			OFFSET -1.305520 -1.794630 0.839290
			CHANNELS 3 Zrotation Yrotation Xrotation
			JOINT RightLeg
			{
				OFFSET -2.542530 -6.985550 0.000000
				CHANNELS 3 Zrotation Yrotation Xrotation
				JOINT RightFoot
				{
					OFFSET -2.568260 -7.056230 0.000000
					CHANNELS 3 Zrotation Yrotation Xrotation
					JOINT RightToeBase
					{
						OFFSET -0.164730 -0.452590 2.363150
						CHANNELS 3 Zrotation Yrotation Xrotation
						End Site
						{
							OFFSET 0.000000 0.000000 0.000000
						}
					}
				}
			}
		}
	}
	JOINT LowerBack
	{
		OFFSET 0.000000 0.000000 0.000000
		CHANNELS 3 Zrotation Yrotation Xrotation
		JOINT Spine
		{
			OFFSET 0.028270 2.035590 -0.193380
			CHANNELS 3 Zrotation Yrotation Xrotation
			JOINT Spine1
			{
				OFFSET 0.056720 2.048850 -0.042750
				CHANNELS 3 Zrotation Yrotation Xrotation
				JOINT Neck
				{
					OFFSET 0.000000 0.000000 0.000000
					CHANNELS 3 Zrotation Yrotation Xrotation
					JOINT Neck1
					{
						OFFSET -0.054170 1.746240 0.172020
						CHANNELS 3 Zrotation Yrotation Xrotation
						JOINT Head
						{
							OFFSET 0.104070 1.761360 -0.123970
							CHANNELS 3 Zrotation Yrotation Xrotation
							End Site
							{
								OFFSET 0.000000 0.000000 0.000000
							}
						}
					}
				}
				JOINT LeftShoulder
				{
					OFFSET 0.000000 0.000000 0.000000
					CHANNELS 3 Zrotation Yrotation Xrotation
					JOINT LeftArm
					{
						OFFSET 3.362410 1.200890 -0.311210
						CHANNELS 3 Zrotation Yrotation Xrotation
						JOINT LeftForeArm
						{
							OFFSET 4.983000 -0.000000 -0.000000
							CHANNELS 3 Zrotation Yrotation Xrotation
							JOINT LeftHand
							{
								OFFSET 3.483560 -0.000000 -0.000000
								CHANNELS 3 Zrotation Yrotation Xrotation
								JOINT LeftFingerBase
								{
									OFFSET 0.000000 0.000000 0.000000
									CHANNELS 3 Zrotation Yrotation Xrotation
									JOINT LeftHandIndex1
									{
										OFFSET 0.715260 -0.000000 -0.000000
										CHANNELS 3 Zrotation Yrotation Xrotation
										End Site
										{
											OFFSET 0.000000 0.000000 0.000000
										}
									}
								}
								JOINT LThumb
								{
									OFFSET 0.000000 0.000000 0.000000
									CHANNELS 3 Zrotation Yrotation Xrotation
									End Site
									{
										OFFSET 0.000000 0.000000 0.000000
									}
								}
							}
						}
					}
				}
				JOINT RightShoulder
				{
					OFFSET 0.000000 0.000000 0.000000
					CHANNELS 3 Zrotation Yrotation Xrotation
					JOINT RightArm
					{
						OFFSET -3.136600 1.374050 -0.404650
						CHANNELS 3 Zrotation Yrotation Xrotation
						JOINT RightForeArm
						{
							OFFSET -5.241900 -0.000000 -0.000000
							CHANNELS 3 Zrotation Yrotation Xrotation
							JOINT RightHand
							{
								OFFSET -3.444170 -0.000000 -0.000000
								CHANNELS 3 Zrotation Yrotation Xrotation
								JOINT RightFingerBase
								{
									OFFSET 0.000000 0.000000 0.000000
									CHANNELS 3 Zrotation Yrotation Xrotation
									JOINT RightHandIndex1
									{
										OFFSET -0.622530 -0.000000 -0.000000
										CHANNELS 3 Zrotation Yrotation Xrotation
										End Site
										{
											OFFSET 0.000000 0.000000 0.000000
										}
									}
								}
								JOINT RThumb
								{
									OFFSET 0.000000 0.000000 0.000000
									CHANNELS 3 Zrotation Yrotation Xrotation
									End Site
									{
										OFFSET 0.000000 0.000000 0.000000
									}
								}
							}
						}
					}
				}
			}
		}
	}
}
MOTION
Frames: 6
Frame Time: 0.008333
1.354200 17.422760 33.405017 178.511383 7.434272 -171.990780 8.628287 1.293712 -3.795398 -35.406536 1.493364 5.876254 3.312122 12.189023 36.465341 1.495075 16.174339 19.810553 0.053600 1.493800 4.108500 -14.230711 -2.815244 1.028047 24.996563 23.781081 -40.306728 -0.664401 -14.100438 31.875569 -2.030431 -13.204969 3.456089 -1.405500 7.498900 -21.202200 -1.723552 -4.975751 -3.286931 0.794121 -7.134880 -3.668107 -1.869352 -3.576114 11.313521 1.402918 3.403064 -20.565028 4.127310 9.896306 17.554513 -0.726200 5.902100 25.925000 11.355133 2.559828 -0.557717 -75.675362 7.341268 59.559105 108.345789 -59.191328 -70.743506 1.613606 -0.373226 21.915860 17.782327 1.260665 0.288600 -7.125000 0.000000 0.000000 -8.283000 30.955700 2.869200 -9.086379 -1.826073 2.576597 87.759026 -48.019471 13.018841 -81.590859 62.262627 -43.236008 0.253412 -1.743235 3.732189 -10.244584 -5.230452 0.650100 7.125000 0.000000 0.000000 12.984400 -33.297600 3.808400 
1.387532 17.401954 33.119677 178.458254 7.653941 -172.206390 8.589376 1.315875 -3.743177 -35.300437 1.888656 5.444321 3.709906 12.722238 38.345316 1.443668 16.383596 19.499216 0.027800 1.077000 2.960800 -14.230308 -2.852088 1.000611 25.634372 23.067086 -39.939708 -0.667866 -14.036450 31.898246 -2.138793 -13.125689 4.886760 -1.340300 7.330100 -20.697100 -1.879830 -4.868365 -2.939319 0.816891 -7.011408 -3.750684 -1.520870 -3.538875 10.852871 1.168251 3.284173 -20.417044 4.104824 10.030138 17.685662 -0.668600 5.945400 26.220300 11.389958 2.531344 -0.597234 -76.079747 7.992319 59.711532 107.668783 -59.328655 -70.070075 1.612426 -0.364908 21.976590 17.750485 1.129081 0.246900 -7.125000 0.000000 0.000000 -8.291400 30.808500 2.901700 -9.066867 -1.799053 2.579824 87.668061 -48.576489 13.033357 -81.792060 62.190563 -43.388941 0.243113 -1.719610 3.752521 -10.042529 -5.017913 0.602300 7.125000 0.000000 0.000000 13.125300 -33.104000 3.914700 
1.416406 17.361509 32.837839 178.484098 7.762194 -172.342719 8.577087 1.323489 -3.743359 -35.148054 2.050559 4.723683 4.255419 13.419768 40.833921 1.303705 16.749635 18.546172 0.001400 0.243300 0.668500 -14.244417 -2.856176 0.900625 26.200587 22.626348 -39.256254 -0.632731 -13.934046 31.852723 -2.289877 -13.849381 6.155797 -1.257900 7.109900 -20.041500 -1.664880 -4.673036 -3.264903 0.724128 -6.722951 -3.593201 -1.940567 -3.363715 11.455674 1.126369 3.302221 -20.289266 4.237738 9.786820 17.516015 -0.563100 5.815800 25.432600 11.345638 2.607721 -0.560163 -75.868938 7.621815 59.824784 106.773591 -59.533817 -69.248723 1.589698 -0.347840 22.651623 17.500023 1.501221 0.342500 -7.125000 0.000000 0.000000 -8.498000 31.162700 2.902500 -9.104366 -1.843226 2.654322 88.568422 -48.409761 12.445269 -81.924931 62.370061 -43.437713 0.242209 -1.706470 4.047554 -9.929360 -4.811527 0.561500 7.125000 0.000000 0.000000 13.180000 -32.911800 3.994700 
1.449420 17.290917 32.568528 178.732789 8.053957 -172.815177 8.538537 1.343513 -3.698545 -34.581072 2.673231 4.072881 4.836177 14.055880 43.294197 1.234048 17.086473 18.168481 0.001800 0.275400 0.756800 -14.303533 -2.857577 0.792222 27.273055 22.211980 -37.747886 -0.671841 -13.823984 31.895573 -2.361865 -13.442995 7.415094 -1.321100 7.279500 -20.546100 -1.536485 -4.483269 -2.685000 0.728330 -6.488987 -3.583347 -1.809609 -3.263365 11.280631 1.147151 3.267998 -20.591573 4.214237 9.783290 17.504111 -0.585600 5.813400 25.776600 11.382612 2.597091 -0.566625 -76.306597 8.149369 59.571688 106.259302 -59.645640 -68.745945 1.592572 -0.353823 22.645174 17.474879 1.208162 0.259100 -7.125000 0.000000 0.000000 -8.493900 30.863100 2.962700 -9.096519 -1.808223 2.647892 88.403507 -48.533643 12.982651 -81.905122 62.342849 -43.410286 0.240878 -1.716240 3.950918 -10.039567 -4.892082 0.580100 7.125000 0.000000 0.000000 13.106000 -32.984200 3.947700 
1.480947 17.223510 32.295076 178.872965 8.283537 -173.193424 8.497296 1.361649 -3.649292 -34.152526 3.108076 3.370649 5.467989 14.702199 45.872867 1.130297 17.442840 17.529573 0.000000 -0.005900 -0.016100 -14.313893 -2.873077 0.663977 28.194237 21.524851 -36.575303 -0.764397 -13.778285 32.049813 -2.335000 -12.497094 8.056322 -1.378600 7.429800 -20.995000 -1.427981 -4.301121 -2.317393 0.706403 -6.249072 -3.549091 -1.793713 -3.143419 11.208426 1.073926 3.218060 -20.553905 4.223402 9.688461 17.443829 -0.572600 5.763500 25.638400 11.392256 2.602693 -0.562028 -76.567830 8.550742 59.451684 105.712929 -59.769454 -68.224418 1.587920 -0.350551 22.798977 17.402161 1.156762 0.241700 -7.125000 0.000000 0.000000 -8.540600 30.802700 2.991800 -9.105303 -1.793904 2.665300 88.482746 -48.625537 13.251020 -81.880331 62.366278 -43.368763 0.239501 -1.719512 3.994741 -10.076434 -4.902589 0.583500 7.125000 0.000000 0.000000 13.077500 -32.992500 3.936000 
1.511732 17.144213 32.024703 179.019189 8.518076 -173.631352 8.445850 1.381854 -3.585576 -33.664882 3.548031 2.630366 6.155652 15.339519 48.556657 1.018654 17.829012 16.847621 0.001300 -0.234200 -0.643600 -14.296496 -2.894146 0.496622 29.188311 20.634352 -35.263854 -0.939305 -13.793749 32.373920 -2.142472 -10.815992 7.802388 -1.458000 7.631900 -21.601400 -1.323271 -4.115703 -1.852541 0.684117 -6.001062 -3.514859 -1.770716 -3.017610 11.088643 0.991440 3.159013 -20.469625 4.227481 9.569420 17.368914 -0.567000 5.704300 25.453800 11.401281 2.604515 -0.554263 -76.860569 9.034671 59.274426 105.251683 -59.878452 -67.784550 1.583687 -0.345034 22.914003 17.354829 1.145507 0.235800 -7.125000 0.000000 0.000000 -8.570900 30.783100 3.006700 -9.118955 -1.773776 2.677824 88.469338 -48.665410 13.685799 -81.758501 62.386528 -43.252380 0.239021 -1.728112 4.032934 -10.155548 -4.965447 0.598100 7.125000 0.000000 0.000000 13.021700 -33.048500 3.900300 
